<?xml version="1.0" encoding="UTF-8" standalone="no"?>
<svg
   xmlns:osb="http://www.openswatchbook.org/uri/2009/osb"
   xmlns:dc="http://purl.org/dc/elements/1.1/"
   xmlns:cc="http://creativecommons.org/ns#"
   xmlns:rdf="http://www.w3.org/1999/02/22-rdf-syntax-ns#"
   xmlns:svg="http://www.w3.org/2000/svg"
   xmlns="http://www.w3.org/2000/svg"
   xmlns:xlink="http://www.w3.org/1999/xlink"
   xmlns:sodipodi="http://sodipodi.sourceforge.net/DTD/sodipodi-0.dtd"
   xmlns:inkscape="http://www.inkscape.org/namespaces/inkscape"
   width="394mm"
   height="275mm"
   viewBox="0 0 394.00003 275"
   id="svg3337"
   version="1.1"
   inkscape:version="0.91pre2 r13516"
   sodipodi:docname="colugo.svg">
  <metadata
     id="metadata3355">
    <rdf:RDF>
      <cc:Work
         rdf:about="">
        <dc:format>image/svg+xml</dc:format>
        <dc:type
           rdf:resource="http://purl.org/dc/dcmitype/StillImage" />
        <dc:title>Exported SVG</dc:title>
      </cc:Work>
    </rdf:RDF>
  </metadata>
  <defs
     id="defs3353">
    <linearGradient
       id="linearGradient5979"
       osb:paint="solid">
      <stop
         style="stop-color:#962000;stop-opacity:1;"
         offset="0"
         id="stop5981" />
    </linearGradient>
    <linearGradient
       id="linearGradient5847"
       osb:paint="solid">
      <stop
         style="stop-color:#44d400;stop-opacity:1;"
         offset="0"
         id="stop5849" />
    </linearGradient>
    <linearGradient
       id="linearGradient5841"
       osb:paint="solid">
      <stop
         style="stop-color:#cf0064;stop-opacity:1;"
         offset="0"
         id="stop5843" />
    </linearGradient>
    <inkscape:perspective
       sodipodi:type="inkscape:persp3d"
       inkscape:vp_x="-75.426298 : 151.20506 : 1"
       inkscape:vp_y="0 : 1000 : 0"
       inkscape:vp_z="323.20274 : 187.86083 : 1"
       inkscape:persp3d-origin="161.60137 : 125.24055 : 1"
       id="perspective4189" />
  </defs>
  <sodipodi:namedview
     pagecolor="#ffffff"
     bordercolor="#666666"
     borderopacity="1"
     objecttolerance="10"
     gridtolerance="10"
     guidetolerance="10"
     inkscape:pageopacity="0"
     inkscape:pageshadow="2"
     inkscape:window-width="1280"
     inkscape:window-height="738"
     id="namedview3351"
     showgrid="false"
     inkscape:zoom="0.48531006"
     inkscape:cx="688.93852"
     inkscape:cy="489.71115"
     inkscape:window-x="-8"
     inkscape:window-y="-8"
     inkscape:window-maximized="1"
     inkscape:current-layer="svg3337"
     showguides="true"
     inkscape:guide-bbox="true">
    <sodipodi:guide
       orientation="1,0"
       position="113.3296,349.26124"
       id="guide6192" />
    <sodipodi:guide
       orientation="1,0"
       position="443.39385,86.704997"
       id="guide6194" />
  </sodipodi:namedview>
  <title
     id="title3339">Exported SVG</title>
  <path
     inkscape:connector-curvature="0"
     style="fill:none;stroke:#ff19ff;stroke-width:1.0079999;stroke-linecap:round;stroke-linejoin:round"
     d="m 196.57361,254.63174 0,0"
     id="path3341-3" />
  <path
     sodipodi:type="star"
     style="fill:#4f6373;fill-opacity:1;fill-rule:nonzero"
     id="path6081-2"
     sodipodi:sides="4"
     sodipodi:cx="11.737679"
     sodipodi:cy="24.072187"
     sodipodi:r1="17.584869"
     sodipodi:r2="12.434381"
     sodipodi:arg1="0.77739833"
     sodipodi:arg2="1.5627965"
     inkscape:flatsided="true"
     inkscape:rounded="0.1"
     inkscape:randomized="0"
     d="M 24.271133,36.406698 C 22.52677,38.179196 1.1756661,38.350005 -0.59683207,36.605642 -2.3693302,34.861279 -2.5401391,13.510175 -0.79577589,11.737677 0.94858733,9.9651787 22.299691,9.7943698 24.072189,11.538733 c 1.772498,1.744363 1.943307,23.095467 0.198944,24.867965 z"
     transform="matrix(14.117924,0,0,9.8575956,31.048244,-100.50127)" />
  <path
     style="fill:#d9d7ac;fill-opacity:1;fill-rule:nonzero;stroke:#000000;stroke-width:5.13644457;stroke-linecap:round;stroke-linejoin:round;stroke-miterlimit:4;stroke-dasharray:none;stroke-opacity:1"
     d="m 56.198439,19.17708 c 21.341215,57.656095 57.186081,116.67149 22.282855,169.05469 57.677276,1.20978 88.406816,24.99683 118.091576,74.46341 29.68543,-49.46763 54.84906,-73.95129 112.52756,-75.15987 -25.54731,-54.60518 15.48704,-112.10476 27.85072,-168.35823 l -98.83373,58.03 c -0.23625,-2.54219 -0.75422,-4.985365 -1.61672,-7.27328 a 9.9914402,9.627492 0 0 0 5.45979,-8.581335 9.9914402,9.627492 0 0 0 -9.99163,-9.62696 9.9914402,9.627492 0 0 0 -8.46167,4.52795 c -7.31286,-3.772475 -16.60844,-5.565875 -25.91183,-5.41926 -8.86049,0.13965 -17.71136,2.036125 -24.83915,5.62184 a 9.9914402,9.627492 0 0 0 -8.29192,-4.271365 9.9914402,9.627492 0 0 0 -9.99159,9.62696 9.9914402,9.627492 0 0 0 4.56652,8.07394 c -1.17176,2.59728 -1.90435,5.403825 -2.28231,8.3363 L 56.198439,19.17708 Z"
     id="path3345-8"
     inkscape:connector-curvature="0" />
  <path
     style="fill:#8f8164;fill-opacity:1;fill-rule:nonzero;stroke:none;stroke-width:0.32252771;stroke-linecap:round;stroke-linejoin:round"
     d="m 84.743669,57.7062 c 66.206211,96.42486 17.780001,118.08381 17.780001,118.08381 46.02661,0.84504 70.54978,17.46059 94.23827,52.01269 23.68905,-34.55284 43.7695,-51.65468 89.79712,-52.49884 0,0 -27.78366,-37.34773 22.225,-117.59766 l -73.00877,37.52203 c -4.36412,13.9649 -13.44242,27.60657 -21.21406,34.42947 -14.42595,12.66489 -22.4629,10.95377 -35.37867,0 -8.82213,-7.39267 -17.15602,-20.63299 -20.75878,-34.0822 L 84.743669,57.7062 Z"
     id="path3345-4-8"
     inkscape:connector-curvature="0" />
  <ellipse
     style="fill:#000000;fill-opacity:1;fill-rule:nonzero;stroke:#000000;stroke-width:0.19755557;stroke-linecap:square;stroke-miterlimit:4;stroke-dasharray:none;stroke-opacity:1"
     id="path6154"
     cx="179.42482"
     cy="84.0466"
     rx="6.3604817"
     ry="11.957705" />
  <ellipse
     style="fill:#000000;fill-opacity:1;fill-rule:nonzero;stroke:#000000;stroke-width:0.19755557;stroke-linecap:square;stroke-miterlimit:4;stroke-dasharray:none;stroke-opacity:1"
     id="path6154-8"
     cx="215.05992"
     cy="84.0466"
     rx="6.3604817"
     ry="11.957705" />
</svg>
